<?xml version="1.0" encoding="utf-8"?>
<!-- Generator: Adobe Illustrator 24.1.1, SVG Export Plug-In . SVG Version: 6.00 Build 0)  -->
<svg version="1.1" id="Layer_1" xmlns="http://www.w3.org/2000/svg" xmlns:xlink="http://www.w3.org/1999/xlink" x="0px" y="0px"
	 viewBox="0 0 3401.6 2834.6" style="enable-background:new 0 0 3401.6 2834.6;" xml:space="preserve">
<style type="text/css">
	.st0{fill:#DDDDDD;}
	.st1{fill:#F94B8A;}
	.st2{fill:#101066;}
	.st3{fill:none;stroke:#FFFFFF;stroke-width:0.5;stroke-miterlimit:10;}
	.st4{fill:#4DA3DB;}
	.st5{fill:none;stroke:#F74657;stroke-width:2;stroke-linecap:round;stroke-linejoin:round;stroke-dasharray:9.9488,9.9488;}
	.st6{fill:none;stroke:#F74657;stroke-width:2;stroke-linejoin:round;stroke-dasharray:9.9685,9.9685;}
	.st7{fill:none;stroke:#F74657;stroke-width:2;stroke-linejoin:round;stroke-dasharray:10.0496,10.0496;}
	.st8{fill:none;stroke:#F74657;stroke-width:2;stroke-linecap:round;stroke-linejoin:round;}
	.st9{fill:none;stroke:#F74657;stroke-width:2;stroke-linecap:round;stroke-linejoin:round;stroke-dasharray:10.4492,10.4492;}
	.st10{fill:none;}
	
		.st11{fill:none;stroke:#F74657;stroke-width:2;stroke-linecap:round;stroke-linejoin:round;stroke-miterlimit:10;stroke-dasharray:10,10;}
	.st12{fill:#FFFFFF;stroke:#4DA3DB;stroke-miterlimit:10;}
	.st13{fill:#FFFFFF;}
	.st14{font-family:'BRB';}
	.st15{font-size:42.7738px;}
</style>
<path class="st0" d="M538.9,1222.7l9.8,2.4l13.7,6.7l5.5,3.9l28.6-20l14.5-15.3l21.5-0.8l-3.9,40.3l-7.1,48.9l3.9,40.7l22.3,75.9
	l9.8,28.9l25.4,23.9l26.2-0.8l12.5-14.1l-0.4-32.1l7.4-17.2l-10.9-32.1l-9-15.6l9-7.4l16,18l19.6,25.8l28.2,16h9l3.1-30.5
	l-15.3-33.6l7.4-71.6l10.6-13.7l19.2,0.8l13.7,9.8l-12.9,31.7l0.4,12.5l16.8,31.7l2.7,45l5.9,12.9l20.4-7.8l12.5-63.4l2-35.6l9-25
	l10.2-35.6l11.3,3.5l26.6,27l40.7,41.1l12.5,17.6l28.6,9l35.6,24.6l53.2,48.9l34.4-5.1l26.6-25.8l-9.4-22.7l-13.7-16.4l-41.1-20
	l-0.8-10.6l17.6-16.4l5.9-22.7l-30.1-22.7l-55.2-56l-27.6,3.3l-31.1,6.1l-69.9,39.7l54.3-96.8l18-18.8l23.9-20l14.5,3.5l14.1,41.1
	l10.9,8.6l45,2.7l36,37.2l39.8,6.8l20.9-18.3l30.8,4.7h22.4l19.3-20.4l-3.6-85.8l-28.2-47.5l-12-40.7v-21.4l37.6-7.8l13.5,4.2
	l17.2-24.5l12-9.4l40.7,8.3l49.5,2.1l37.6-20.9l43.3,4.2l51.1-31.8l19.8,2.1l24-64.7l41.7-1l64.7,12.5l20.9-19.8l-31.3-138.8
	l45.9-87.7l29.2-160.7l-2.1-53.2l19.8-60.5l8.3-59.5l24-15.6l53.2,29.2l59.5-7.3l19.8-30.3l-9.4-49c0,0-35.5-37.6-41.7-37.6
	c-6.3,0-30.3,0-30.3,0l-24-21.9l13.5-38.6l-26.1-37.6c-37.9,11-95,23.1-163.8,19.5c-78.7-4.1-114.6-25.8-185.4-35.6
	c-51.6-7.2-126.6-8.7-222.5,19.9c-0.6,45.2-78.5,156.5-18.8,156.5c4.7,0-18.8,67.3-18.8,67.3l-75.1,12.5l-42.2,48.5l-26.6-4.7
	l-9.4-20.4l-32.9,25l-15.6,40.7l-34.4,9.4l-20.4,17.2l-17.2-23.5l-68.9,20.4l-17.2,68.9l-15.6,67.3l-40.7,40.7l-98.6,36H564.7
	L524,654.2L494.3,626l-31.3,25l-79.8,6.3l-45.4,59.5l15.6,40.7l31.3,40.7l-10.9,29.7l-45.4-6.3l6.3,23.5l26.6,25l4.7,29.7
	l-17.2,26.6l1.6,23.5l-21.9,1.6l-9.4-34.4l15.6-26.6l-7.8-23.5l-20.4-1.6l-26.6,28.2l-42.2-15.6l-18.8,29.7l-42.2,9.4l-25-15.6H90.5
	l-29.7,12.5l10.9,37.6l68.9,72l53.2-7.8l7.8,46.9l29.7,43.8l-17.2,34.4l-25,9.4l-28.2,20.4v32.9l-46.9,43.8l-67.3,20.4l-11,47.2
	v117.4l57.9,133l67.3,103.3l61,12.5l29.7-48.5l23.5-39.1l12.5-82.9l15.6-17.2l1.6-89.2l-15.6-20.4l10.9-57.9l51.6-6.3l65.7,32.9
	l56.3,4.7l21.9-32.9l25-21.9L538.9,1222.7z"/>
<path class="st1" d="M538.9,1206.2l9.8,2.4l13.7,6.7l5.5,3.9l28.6-20l14.5-15.3l21.5-0.8l-3.9,40.3l-7.1,48.9l3.9,40.7l22.3,75.9
	l9.8,28.9l25.4,23.9l26.2-0.8l12.5-14.1l-0.4-32.1l7.4-17.2l-10.9-32.1l-9-15.6l9-7.4l16,18l19.6,25.8l28.2,16h9l3.1-30.5
	l-15.3-33.6l7.4-71.6l10.6-13.7l19.2,0.8l13.7,9.8l-12.9,31.7l0.4,12.5l16.8,31.7l2.7,45l5.9,12.9l20.4-7.8l12.5-63.4l2-35.6l9-25
	l10.2-35.6l11.3,3.5l26.6,27l40.7,41.1l12.5,17.6l28.6,9l35.6,24.6l53.2,48.9l34.4-5.1l26.6-25.8l-9.4-22.7l-13.7-16.4l-41.1-20
	l-0.8-10.6l17.6-16.4l5.9-22.7l-30.1-22.7l-55.2-56l-27.6,3.3l-31.1,6.1l-69.9,39.7l54.3-96.8l18-18.8l23.9-20l14.5,3.5l14.1,41.1
	l10.9,8.6l45,2.7l36,37.2l39.8,6.8l20.9-18.3l30.8,4.7h22.4l19.3-20.4l-3.6-86.1l-28.2-47.5l-12-40.7v-21.4l37.6-7.8l13.5,4.2
	l17.2-24.5l12-9.4l40.7,8.3l49.5,2.1l37.6-20.9l43.3,4.2l51.1-31.8l19.8,2.1l24-64.7l41.7-1l64.7,12.5l20.9-19.8l-31.3-138.8
	l45.9-87.7l29.2-160.7l-2.1-53.2l19.9-60.3l8.3-59.5l24-15.6l53.2,29.2l59.5-7.3l19.8-30.3l-9.4-49c0,0-35.5-37.6-41.7-37.6
	c-6.3,0-30.3,0-30.3,0l-24-21.9l13.5-38.6l-26.1-37.6c-37.9,11-95,23.1-163.8,19.5c-78.7-4.1-114.6-25.8-185.4-35.6
	c-51.6-7.2-126.6-8.7-222.5,19.9c-0.6,45.2-78.5,156.5-18.8,156.5c4.7,0-18.8,67.3-18.8,67.3l-75.1,12.5l-42.2,48.5l-26.6-4.7
	l-9.4-20.4l-32.9,25l-15.6,40.7l-34.4,9.4l-20.4,17.2l-17.3-23.4l-68.9,20.4l-17.2,68.9l-15.6,67.3L772.8,561l-98.6,36H564.7
	L524,637.7l-29.7-28.2l-31.3,25l-79.8,6.3l-45.4,59.5l15.6,40.7l31.3,40.7l-10.9,29.7l-45.4-6.3l6.3,23.5l26.6,25l4.7,29.7
	l-17.2,26.6l1.6,23.5l-21.9,1.6l-9.4-34.4l15.6-26.6l-7.8-23.5l-20.4-1.6l-26.6,28.2l-42.2-15.6l-18.8,29.7l-42.2,9.4l-25-15.6H90.5
	l-29.7,12.5l10.9,37.6l68.9,72l53.2-7.8l7.8,46.9l29.7,43.8l-17.2,34.4l-25.1,9.5l-28.2,20.4v32.9l-46.9,43.8l-67.3,20.4l-10.9,46.9
	v117.4l57.9,133l67.3,103.3l61,12.5l29.7-48.5l23.5-39.1l12.5-82.9l15.6-17.2l1.6-89.2l-15.6-20.4l10.9-57.9l51.6-6.3l65.7,32.9
	l56.3,4.7l21.9-32.9l25-21.9L538.9,1206.2z"/>
<path class="st2" d="M1018.5,2056.6"/>
<g>
	<polyline class="st3" points="524.8,1186.7 530.2,1140.6 566.8,1082.5 608.3,1056.8 629,1022.9 635.3,948.8 625.8,894 683.1,771.5 
		732.5,715.1 783.5,647.5 777.2,574.9 754.9,547.6 	"/>
	<polyline class="st3" points="816.7,1221 841.4,1182.9 827.4,1143.7 827.4,1123.4 838.3,1101.5 771,1029.5 722.5,1017 
		711.6,1057.7 683.4,1060.8 631.7,1009.2 	"/>
	<polyline class="st3" points="771.8,1032.6 829.4,963.2 841.4,978.5 887.6,1006.1 893.8,1093.7 853.1,1132.8 882,1190.2 	"/>
	<polyline class="st3" points="829.4,963.2 857.1,909 827.4,879.3 833.6,822.9 869.6,797.9 861.8,747.8 733.5,710.3 	"/>
	<polyline class="st3" points="861.8,747.8 943.2,705.6 965.1,757.3 1015.1,774.5 1040.2,816.7 1073,819.8 1096.5,851.1 
		1087.1,879.3 1060.5,915.3 1013.6,929.4 1007.3,967 1019.8,1043.6 1010.4,1056.1 	"/>
	<polyline class="st3" points="887.6,1006.1 927.5,943.5 924.4,916.9 958.8,916.9 997.9,959.1 1007.3,967 	"/>
	<polyline class="st3" points="1087.1,879.3 1138.8,894.9 1163.8,923.1 1157.5,967 1184.2,995.1 1220.1,994 	"/>
	<polyline class="st3" points="943.2,705.6 955.3,686.5 1016.7,589.8 979.1,556.9 958.8,547.6 972.9,483.4 947.8,439.5 969.8,389.5 
		968.2,350.4 	"/>
	<polyline class="st3" points="952.4,697.8 1004.2,736.9 1030.8,726 1040.2,708.7 1088.7,708.7 1126.2,726 1177.9,755.7 
		1204.5,760.4 1215.5,777.6 1259.3,833.9 1288.5,894.4 	"/>
	<polyline class="st3" points="1016.7,589.8 1087.1,619.5 1137.2,654 1182.6,661.8 1210.8,693.1 1204.5,760.4 	"/>
	<path class="st3" d="M1181,666.6l53.2-53.4l51.6-23.5l23.5-61l-7.8-75.1l-42.2-12.5h-29.7l-10.9-25l18.8-18.8
		c0,0-1.6-45.4-1.6-51.6s12.5-62.6,12.5-62.6l-40.7-26.6l-26.6-12.5"/>
	<polyline class="st3" points="1305.8,494.7 1356.7,522.4 1390.3,589.9 1411.2,626.9 1378.3,659.2 1393.3,714.7 1435.2,716.2 
		1457.7,744 1483.1,754.7 1522,710.1 1544.5,736.3 1534.1,770.1 1554.5,793.8 	"/>
	<polyline class="st3" points="1143.5,791.6 1140.3,843.3 1087.1,879.3 1140.3,843.3 1143.5,791.6 1179.5,799.5 1215.5,777.6 	"/>
</g>
<path class="st4" d="M1425.4,2557.8c-0.7-6.6-1.6-17,1.7-30.4c1.6-6.4,9.1-33.3,35.1-50.4c6.7-4.4,20.5-13.5,39.2-12.5
	c3.7,0.2,15.9,1.2,27.5,9.3c3.8,2.6,8.7,6.1,11.5,12.7c2.7,6,2.2,11.5,2,14.1c-0.2,2.9-0.9,10.2-6.3,16.3c-4.5,5.1-10,6.8-14.6,8.3
	c-5.1,1.6-9.6,2-12.6,2c8.8-4.3,12.9-12.5,10.9-18.5c-1.1-3.2-4-6.2-7.6-7c-6.7-1.5-12.7,5.1-15.3,8c-8.4,9.3-9,20.9-9.1,25.4
	c-0.2,6.1-0.6,14.2,4.8,21.7c4.6,6.5,11,9.3,14,10.4c0.2-2.4,0.8-5.9,2-9.9c1.6-5.4,9.3-28.7,31.6-35.8c2.6-0.8,19.4-6,33.8,2.7
	c3,1.8,8.7,5.3,10.3,11.7c2.6,10.9-8.6,22.7-11.9,21.5c-2.9-1,1.2-11.7-3.6-14.9c-3.9-2.5-12.4,0.5-15.6,6.6c-2.6,5-1,11.1,1.7,14.9
	c7.1,10,24.9,8.5,34.2,6c11-3,18.5-9.7,22.6-14.2c-0.5,3.1-4.5,24.2-22.6,33.7c-2.8,1.5-9.4,5-17.9,4.6c-11.2-0.4-13-6.9-22.9-7
	c-11.4-0.1-13.2,8.4-23.9,7.6c-9.3-0.7-10.4-7.2-19.9-7.6c-8.7-0.3-9.1,5.1-18.9,6.6c-13.3,2.1-17.1-7.2-33.8-6.3
	c-8.5,0.5-9.7,3-13.9,1.3C1428.2,2584.7,1426.5,2568.2,1425.4,2557.8z"/>
<path class="st4" d="M2733.9,2230.1c-0.7-6.6-1.6-17,1.7-30.4c1.6-6.4,9.1-33.3,35.1-50.4c6.7-4.4,20.5-13.5,39.2-12.5
	c3.7,0.2,15.9,1.2,27.5,9.3c3.8,2.6,8.7,6.1,11.5,12.7c2.7,6,2.2,11.5,2,14.1c-0.2,2.9-0.9,10.2-6.3,16.3c-4.5,5.1-10,6.8-14.6,8.3
	c-5.1,1.6-9.6,2-12.6,2c8.8-4.3,12.9-12.5,10.9-18.5c-1.1-3.2-4-6.2-7.6-7c-6.7-1.5-12.7,5.1-15.3,8c-8.4,9.3-9,20.9-9.1,25.4
	c-0.2,6.1-0.6,14.2,4.8,21.7c4.6,6.5,11,9.3,14,10.4c0.2-2.4,0.8-5.9,2-9.9c1.6-5.4,9.3-28.7,31.6-35.8c2.6-0.8,19.4-6,33.8,2.7
	c3,1.8,8.7,5.3,10.3,11.7c2.6,10.9-8.6,22.7-11.9,21.5c-2.9-1,1.2-11.7-3.6-14.9c-3.9-2.5-12.4,0.5-15.6,6.6c-2.6,5-1,11.1,1.7,14.9
	c7.1,10,24.9,8.5,34.2,6c11.1-3,18.5-9.7,22.6-14.2c-0.5,3.1-4.5,24.2-22.6,33.7c-2.8,1.5-9.4,5-17.9,4.6c-11.2-0.4-13-6.9-22.9-7
	c-11.4-0.1-13.2,8.4-23.9,7.6c-9.3-0.7-10.4-7.2-19.9-7.6c-8.7-0.3-9.1,5.1-18.9,6.6c-13.3,2.1-17.1-7.2-33.8-6.3
	c-8.5,0.5-9.7,3-13.9,1.3C2736.6,2257,2734.9,2240.5,2733.9,2230.1z"/>
<path class="st4" d="M2134.1,2516.6c-0.7-6.6-1.6-17,1.7-30.4c1.6-6.4,9.1-33.3,35.1-50.4c6.7-4.4,20.5-13.5,39.2-12.5
	c3.7,0.2,15.9,1.2,27.5,9.3c3.8,2.6,8.7,6.1,11.5,12.7c2.7,6,2.2,11.5,2,14.1c-0.2,2.9-0.9,10.2-6.3,16.3c-4.5,5.1-10,6.8-14.6,8.3
	c-5.1,1.6-9.6,2-12.6,2c8.8-4.3,12.9-12.5,10.9-18.5c-1.1-3.2-4-6.2-7.6-7c-6.7-1.5-12.7,5.1-15.3,8c-8.4,9.3-9,20.9-9.1,25.4
	c-0.2,6.1-0.6,14.2,4.8,21.7c4.6,6.5,11,9.3,14,10.4c0.2-2.4,0.8-5.9,2-9.9c1.6-5.4,9.3-28.7,31.6-35.8c2.6-0.8,19.4-6,33.8,2.7
	c3,1.8,8.7,5.3,10.3,11.7c2.6,10.9-8.7,22.7-11.9,21.5c-2.9-1,1.2-11.7-3.6-14.9c-3.9-2.5-12.4,0.5-15.6,6.6c-2.6,5-1,11.1,1.7,14.9
	c7.1,10,24.9,8.5,34.2,6c11-3,18.5-9.7,22.6-14.2c-0.5,3.1-4.5,24.2-22.6,33.7c-2.8,1.5-9.4,5-17.9,4.6c-11.2-0.4-13-6.9-22.9-7
	c-11.4-0.1-13.2,8.4-23.9,7.6c-9.3-0.7-10.4-7.2-19.9-7.6c-8.7-0.3-9.1,5.1-18.9,6.6c-13.3,2.1-17.1-7.2-33.8-6.3
	c-8.5,0.5-9.7,3-13.9,1.3C2136.8,2543.5,2135.2,2527,2134.1,2516.6z"/>
<path class="st4" d="M3086,268.1c-0.7-6.6-1.6-17,1.7-30.4c1.6-6.4,9.1-33.3,35.1-50.4c6.7-4.4,20.5-13.5,39.2-12.5
	c3.7,0.2,15.9,1.2,27.5,9.3c3.8,2.6,8.7,6.1,11.5,12.7c2.7,6,2.2,11.5,2,14.1c-0.2,2.9-0.9,10.2-6.3,16.3c-4.5,5.1-10,6.8-14.6,8.3
	c-5.1,1.6-9.6,2-12.6,2c8.8-4.3,12.9-12.5,10.9-18.5c-1.1-3.2-4-6.2-7.6-7c-6.7-1.5-12.7,5.1-15.3,8c-8.4,9.3-9,20.9-9.1,25.4
	c-0.2,6.1-0.6,14.2,4.8,21.7c4.6,6.5,11,9.3,14,10.4c0.2-2.4,0.8-5.9,2-9.9c1.6-5.4,9.3-28.7,31.6-35.8c2.6-0.8,19.4-6,33.8,2.7
	c3,1.8,8.7,5.3,10.3,11.7c2.6,10.9-8.6,22.7-11.9,21.5c-2.9-1,1.2-11.7-3.6-14.9c-3.9-2.5-12.4,0.5-15.6,6.6c-2.6,5-1,11.1,1.7,14.9
	c7.1,10,24.9,8.5,34.2,6c11-3,18.5-9.7,22.6-14.2c-0.5,3.1-4.5,24.2-22.6,33.7c-2.8,1.5-9.4,5-17.9,4.6c-11.2-0.4-13-6.9-22.9-7
	c-11.4-0.1-13.2,8.4-23.9,7.6c-9.3-0.7-10.4-7.2-19.9-7.6c-8.7-0.3-9.1,5.1-18.9,6.6c-13.3,2.1-17.1-7.2-33.8-6.3
	c-8.5,0.5-9.7,3-13.9,1.3C3088.7,295,3087,278.4,3086,268.1z"/>
<circle class="st2" cx="1612.4" cy="1873.9" r="236.9"/>
<circle class="st2" cx="2324.7" cy="1745.1" r="319.8"/>
<circle class="st2" cx="2447.5" cy="1027.6" r="233.2"/>
<circle class="st2" cx="2811.8" cy="549.5" r="233.2"/>
<g>
	<g>
		<path class="st2" d="M1062.9,1895.2c0,70.2-58,130.3-104.4,176.4c-47.1,46.8-108.1,104.1-179,104.1c-71,0-131.9-57.3-179-104.1
			c-46.5-46.1-104.4-106.3-104.4-176.4c0-70.1,58-130.3,104.4-176.4c47.1-46.8,108-104.1,179-104.1c71,0,131.9,57.3,179,104.1
			C1004.9,1765,1062.9,1825.1,1062.9,1895.2z"/>
	</g>
</g>
<g>
	<circle class="st5" cx="1612.4" cy="1873.9" r="262.9"/>
</g>
<circle class="st2" cx="1612.4" cy="1873.9" r="236.9"/>
<g>
	
		<ellipse transform="matrix(0.7071 -0.7071 0.7071 0.7071 -553.0656 2154.9307)" class="st6" cx="2324.7" cy="1745.1" rx="355.5" ry="355.5"/>
</g>
<circle class="st2" cx="2324.7" cy="1745.1" r="319.8"/>
<g>
	
		<ellipse transform="matrix(0.7071 -0.7071 0.7071 0.7071 -9.7752 2031.5945)" class="st7" cx="2447.5" cy="1027.6" rx="259.2" ry="259.2"/>
</g>
<circle class="st2" cx="2447.5" cy="1027.6" r="233.2"/>
<g>
	
		<ellipse transform="matrix(0.7071 -0.7071 0.7071 0.7071 434.9871 2149.2092)" class="st7" cx="2811.8" cy="549.5" rx="259.2" ry="259.2"/>
</g>
<circle class="st2" cx="2811.8" cy="549.5" r="233.2"/>
<g>
	<g>
		<line class="st8" x1="709" y1="1440.9" x2="711.2" y2="1445.4"/>
		<line class="st9" x1="715.7" y1="1454.8" x2="785.6" y2="1600.9"/>
		<line class="st8" x1="787.9" y1="1605.6" x2="790.1" y2="1610.1"/>
	</g>
</g>
<g>
	<path class="st10" d="M1626.7,1622.6"/>
</g>
<polyline class="st11" points="1223.1,942.4 1578.5,1211.1 1626.4,1611 "/>
<polyline class="st11" points="1350.8,903.1 1953.2,1194.1 2069.7,1503.8 "/>
<polyline class="st11" points="1523.2,815.8 2132.5,877.7 2204.1,942.8 "/>
<polyline class="st11" points="1686.9,320.7 2444.9,285.9 2579.9,437.1 "/>
<path class="st12" d="M2640.4,2260.2c-0.7-6.6-1.6-17,1.7-30.4c1.6-6.4,9.1-33.3,35.1-50.4c6.7-4.4,20.5-13.5,39.2-12.5
	c3.7,0.2,15.9,1.2,27.5,9.3c3.8,2.6,8.7,6.1,11.5,12.7c2.7,6,2.2,11.5,2,14.1c-0.2,2.9-0.9,10.2-6.3,16.3c-4.5,5.1-10,6.8-14.6,8.3
	c-5.1,1.6-9.6,2-12.6,2c8.8-4.3,12.9-12.5,10.9-18.5c-1.1-3.2-4-6.2-7.6-7c-6.7-1.5-12.7,5.1-15.3,8c-8.4,9.3-9,20.9-9.1,25.4
	c-0.2,6.1-0.6,14.2,4.8,21.7c4.6,6.5,11,9.3,14,10.4c0.2-2.4,0.8-5.9,2-9.9c1.6-5.4,9.3-28.7,31.6-35.8c2.6-0.8,19.4-6,33.8,2.7
	c3,1.8,8.7,5.3,10.3,11.7c2.6,10.9-8.7,22.7-11.9,21.5c-2.9-1,1.2-11.7-3.6-14.9c-3.9-2.5-12.4,0.5-15.6,6.6c-2.6,5-1,11.1,1.7,14.9
	c7.1,10,24.9,8.5,34.2,6c11.1-3,18.5-9.7,22.6-14.2c-0.5,3.1-4.5,24.2-22.6,33.7c-2.8,1.5-9.4,5-17.9,4.6c-11.2-0.4-13-6.9-22.9-7
	c-11.4-0.1-13.2,8.4-23.9,7.6c-9.3-0.7-10.4-7.2-19.9-7.6c-8.7-0.3-9.1,5.1-18.9,6.6c-13.3,2.1-17.1-7.2-33.8-6.3
	c-8.5,0.5-9.7,3-13.9,1.3C2643.2,2287.1,2641.5,2270.6,2640.4,2260.2z"/>
<path class="st12" d="M1428.4,2579.1c-0.6-6.4-1.6-16.6,1.6-29.5c1.5-6.2,8.8-32.3,34-49c6.5-4.3,19.9-13.1,38-12.2
	c3.6,0.2,15.4,1.2,26.7,9.1c3.7,2.6,8.4,6,11.2,12.3c2.6,5.8,2.2,11.2,2,13.7c-0.2,2.8-0.9,9.9-6.1,15.9c-4.3,5-9.7,6.6-14.1,8
	c-5,1.6-9.3,1.9-12.2,1.9c8.6-4.1,12.5-12.2,10.6-18c-1-3.1-3.8-6.1-7.4-6.8c-6.5-1.4-12.2,5-14.8,7.8c-8.1,9-8.7,20.3-8.8,24.7
	c-0.2,6-0.6,13.8,4.6,21.1c4.5,6.3,10.7,9,13.5,10.1c0.2-2.4,0.7-5.7,1.9-9.6c1.6-5.2,9-27.8,30.6-34.8c2.5-0.8,18.8-5.8,32.7,2.6
	c2.9,1.8,8.4,5.1,9.9,11.3c2.5,10.6-8.4,22-11.5,20.9c-2.8-1,1.2-11.4-3.5-14.4c-3.8-2.5-12,0.5-15.1,6.4c-2.5,4.9-1,10.8,1.6,14.4
	c6.8,9.7,24.1,8.2,33.1,5.8c10.7-2.9,17.9-9.4,21.9-13.8c-0.5,3.1-4.3,23.5-21.9,32.8c-2.7,1.5-9.1,4.8-17.3,4.5
	c-10.9-0.4-12.5-6.7-22.2-6.7c-11-0.1-12.8,8.2-23.1,7.4c-9-0.7-10.1-7-19.3-7.4c-8.4-0.3-8.8,4.9-18.3,6.4c-12.9,2-16.5-7-32.8-6.1
	c-8.3,0.5-9.4,2.9-13.5,1.3C1431.1,2605.2,1429.4,2589.2,1428.4,2579.1z"/>
<path class="st12" d="M2643.4,2357.7c-0.6-6.4-1.6-16.6,1.6-29.5c1.5-6.2,8.8-32.3,34-49c6.5-4.3,19.9-13.1,38-12.2
	c3.6,0.2,15.4,1.2,26.7,9.1c3.7,2.6,8.4,6,11.2,12.3c2.6,5.8,2.2,11.2,2,13.7c-0.2,2.8-0.9,9.9-6.1,15.9c-4.3,5-9.7,6.6-14.1,8
	c-5,1.6-9.3,1.9-12.2,1.9c8.6-4.1,12.5-12.2,10.6-18c-1-3.1-3.8-6.1-7.4-6.8c-6.5-1.4-12.2,5-14.8,7.8c-8.1,9-8.7,20.3-8.8,24.7
	c-0.2,6-0.6,13.8,4.6,21.1c4.5,6.3,10.7,9,13.5,10.1c0.2-2.4,0.7-5.7,1.9-9.6c1.6-5.2,9-27.8,30.6-34.8c2.5-0.8,18.8-5.8,32.7,2.6
	c2.9,1.8,8.4,5.1,9.9,11.3c2.5,10.6-8.4,22-11.5,20.9c-2.8-1,1.2-11.4-3.5-14.4c-3.8-2.5-12,0.5-15.1,6.4c-2.5,4.9-1,10.8,1.6,14.4
	c6.8,9.7,24.1,8.2,33.1,5.8c10.7-2.9,17.9-9.4,21.9-13.8c-0.5,3.1-4.3,23.5-21.9,32.8c-2.7,1.5-9.1,4.8-17.3,4.5
	c-10.9-0.4-12.5-6.7-22.2-6.7c-11-0.1-12.8,8.2-23.1,7.4c-9-0.7-10.1-7-19.3-7.4c-8.4-0.3-8.8,4.9-18.3,6.4c-12.9,2-16.5-7-32.8-6.1
	c-8.3,0.5-9.4,2.9-13.5,1.3C2646.1,2383.8,2644.4,2367.8,2643.4,2357.7z"/>
<path class="st12" d="M2124.5,2538.6c-0.6-6.4-1.6-16.6,1.6-29.5c1.5-6.2,8.8-32.3,34-49c6.5-4.3,19.9-13.1,38-12.2
	c3.6,0.2,15.4,1.2,26.7,9.1c3.7,2.6,8.4,6,11.2,12.3c2.6,5.8,2.2,11.2,2,13.7c-0.2,2.8-0.9,9.9-6.1,15.9c-4.3,5-9.7,6.6-14.1,8
	c-5,1.6-9.3,1.9-12.2,1.9c8.5-4.1,12.5-12.2,10.6-18c-1-3.1-3.8-6.1-7.4-6.8c-6.5-1.4-12.2,5-14.8,7.8c-8.1,9-8.7,20.3-8.8,24.7
	c-0.2,6-0.6,13.8,4.6,21.1c4.5,6.3,10.7,9,13.5,10.1c0.2-2.4,0.7-5.7,1.9-9.6c1.6-5.2,9-27.8,30.6-34.8c2.5-0.8,18.8-5.8,32.7,2.6
	c2.9,1.8,8.4,5.1,9.9,11.3c2.5,10.6-8.4,22-11.5,20.9c-2.8-1,1.2-11.4-3.5-14.4c-3.8-2.5-12,0.5-15.1,6.4c-2.5,4.9-1,10.8,1.6,14.4
	c6.8,9.7,24.1,8.2,33.1,5.8c10.7-2.9,17.9-9.4,21.9-13.8c-0.5,3.1-4.3,23.5-21.9,32.8c-2.7,1.5-9.1,4.8-17.3,4.5
	c-10.9-0.4-12.5-6.7-22.2-6.7c-11-0.1-12.8,8.2-23.1,7.4c-9-0.7-10.1-7-19.3-7.4c-8.4-0.3-8.8,4.9-18.3,6.4c-12.9,2-16.5-7-32.8-6.1
	c-8.3,0.5-9.4,2.9-13.5,1.3C2127.1,2564.8,2125.5,2548.7,2124.5,2538.6z"/>
<path class="st12" d="M3059.9,277.5c-0.6-6.4-1.6-16.6,1.6-29.5c1.5-6.2,8.8-32.3,34-49c6.5-4.3,19.9-13.1,38-12.2
	c3.6,0.2,15.4,1.2,26.7,9.1c3.7,2.6,8.4,6,11.2,12.3c2.6,5.8,2.2,11.2,2,13.7c-0.2,2.8-0.9,9.9-6.1,15.9c-4.3,5-9.7,6.6-14.1,8
	c-5,1.6-9.3,1.9-12.2,1.9c8.5-4.1,12.5-12.2,10.6-18c-1-3.1-3.8-6.1-7.4-6.8c-6.5-1.4-12.2,5-14.8,7.8c-8.1,9-8.7,20.3-8.8,24.7
	c-0.2,6-0.6,13.8,4.6,21.1c4.5,6.3,10.7,9,13.5,10.1c0.2-2.4,0.7-5.7,1.9-9.6c1.6-5.2,9-27.8,30.6-34.8c2.5-0.8,18.8-5.8,32.7,2.6
	c2.9,1.8,8.4,5.1,9.9,11.3c2.5,10.6-8.4,22-11.5,20.9c-2.8-1,1.2-11.4-3.5-14.4c-3.8-2.5-12,0.5-15.1,6.4c-2.5,4.9-1,10.8,1.6,14.4
	c6.8,9.7,24.1,8.2,33.1,5.8c10.7-2.9,17.9-9.4,21.9-13.8c-0.5,3.1-4.3,23.5-21.9,32.8c-2.7,1.5-9.1,4.8-17.3,4.5
	c-10.9-0.4-12.5-6.7-22.2-6.7c-11-0.1-12.8,8.2-23.1,7.4c-9-0.7-10.1-7-19.3-7.4c-8.4-0.3-8.8,4.9-18.3,6.4c-12.9,2-16.5-7-32.8-6.1
	c-8.3,0.5-9.4,2.9-13.5,1.3C3062.6,303.6,3061,287.6,3059.9,277.5z"/>
<text transform="matrix(1 0 0 1 627.7751 1341.5221)" class="st13 st14 st15">다대포</text>
<text transform="matrix(1 0 0 1 1092.5499 939.0611)" class="st13 st14 st15">광안리</text>
<text transform="matrix(1 0 0 1 1284.4987 879.3165)" class="st13 st14 st15">해운대</text>
<text transform="matrix(1 0 0 1 1426.2028 815.815)" class="st13 st14 st15">송정</text>
<text transform="matrix(1 0 0 1 1585.7443 320.7296)" class="st13 st14 st15">임랑</text>
</svg>
